# xmcd
#
# Track frame offsets: 
#        182
#        14217
#        28817
#        51227
#        66905
#        79747
#        93392
#        108927
#        127137
#        141117
#        160180
#        178282
#        193185
#        205247
#        223772
#        239517
#        258447
#        270352
#
# Disc length: 3846 seconds
#
# Revision: 6
# Processed by: cddbd v1.5.2PL0 Copyright (c) Steve Scherf et al.
# Submitted via: ExactAudioCopy v0.99pb5
#
DISCID=170f0412
DTITLE=Various Artist - Die deutschen Single-Hits der 70er Jahre - CD 4
DYEAR=1996
DGENRE=Schlager
TTITLE0=Freddy - Morning Sky
TTITLE1=Volker Lechtenbrink - Der Macher
TTITLE2=Vicky Leandros - Ich liebe das Leben
TTITLE3=Curd Jürgens - 60 Jahre - und kein bißchen weise
TTITLE4=Bata Illic - Ich möcht' der Knopf an deiner Bluse sein
TTITLE5=Mary Roos - Santo Domingo
TTITLE6=Fips Asmussen - Ein Korn im Feldbett
TTITLE7=Roland Kaiser - Frei - das heißt allein
TTITLE8=Johanna von Koczian - Das bisschen Haushalt... sagt mein Mann
TTITLE9=Frank Farian - Rocky
TTITLE10=Roy Black - Sand in deinen Augen
TTITLE11=Margot Werner - So ein Mann
TTITLE12=Tony Holiday - Tanze Samba mit mir
TTITLE13=Howard Carpendale - Ti amo
TTITLE14=Daliah Lavi - Weißt du, was du für mich bist? 
TTITLE15=Frank Zander - Oh, Susi (Der zensierte Song)
TTITLE16=Karel Gott - Die Biene Maja
TTITLE17=Peter, Sue and Marc - Cindy (Deutsche Version)
EXTD=
EXTT0=
EXTT1=
EXTT2=
EXTT3=
EXTT4=
EXTT5=
EXTT6=
EXTT7=
EXTT8=
EXTT9=
EXTT10=
EXTT11=
EXTT12=
EXTT13=
EXTT14=
EXTT15=
EXTT16=
EXTT17=
PLAYORDER=
